<?xml version="1.0" encoding="iso-8859-1"?>
<!-- Uploaded to: SVG Repo, www.svgrepo.com, Generator: SVG Repo Mixer Tools -->
<svg fill="#000000" height="800px" width="800px" version="1.1" id="Layer_1" xmlns="http://www.w3.org/2000/svg" xmlns:xlink="http://www.w3.org/1999/xlink" 
	 viewBox="0 0 512.006 512.006" xml:space="preserve">
<g transform="translate(0 -1)">
	<g>
		<g>
			<path d="M8.536,214.338h34.133c4.71,0,8.533-3.823,8.533-8.533c0-4.71-3.823-8.533-8.533-8.533H8.536
				c-4.71,0-8.533,3.823-8.533,8.533C0.003,210.515,3.826,214.338,8.536,214.338z"/>
			<path d="M8.536,248.471h34.133c4.71,0,8.533-3.823,8.533-8.533s-3.823-8.533-8.533-8.533H8.536c-4.71,0-8.533,3.823-8.533,8.533
				S3.826,248.471,8.536,248.471z"/>
			<path d="M8.536,282.605h34.133c4.71,0,8.533-3.823,8.533-8.533c0-4.71-3.823-8.533-8.533-8.533H8.536
				c-4.71,0-8.533,3.823-8.533,8.533C0.003,278.782,3.826,282.605,8.536,282.605z"/>
			<path d="M8.536,316.738h34.133c4.71,0,8.533-3.823,8.533-8.533s-3.823-8.533-8.533-8.533H8.536c-4.71,0-8.533,3.823-8.533,8.533
				S3.826,316.738,8.536,316.738z"/>
			<path d="M503.469,197.271h-34.133c-4.71,0-8.533,3.823-8.533,8.533c0,4.71,3.823,8.533,8.533,8.533h34.133
				c4.71,0,8.533-3.823,8.533-8.533C512.003,201.094,508.18,197.271,503.469,197.271z"/>
			<path d="M503.469,231.405h-34.133c-4.71,0-8.533,3.823-8.533,8.533s3.823,8.533,8.533,8.533h34.133
				c4.71,0,8.533-3.823,8.533-8.533S508.18,231.405,503.469,231.405z"/>
			<path d="M503.469,265.538h-34.133c-4.71,0-8.533,3.823-8.533,8.533c0,4.71,3.823,8.533,8.533,8.533h34.133
				c4.71,0,8.533-3.823,8.533-8.533C512.003,269.361,508.18,265.538,503.469,265.538z"/>
			<path d="M503.469,299.671h-34.133c-4.71,0-8.533,3.823-8.533,8.533s3.823,8.533,8.533,8.533h34.133
				c4.71,0,8.533-3.823,8.533-8.533S508.18,299.671,503.469,299.671z"/>
			<path d="M204.803,461.805c-4.71,0-8.533,3.823-8.533,8.533v34.133c0,4.71,3.823,8.533,8.533,8.533s8.533-3.823,8.533-8.533
				v-34.133C213.336,465.628,209.513,461.805,204.803,461.805z"/>
			<path d="M238.936,461.805c-4.71,0-8.533,3.823-8.533,8.533v34.133c0,4.71,3.823,8.533,8.533,8.533s8.533-3.823,8.533-8.533
				v-34.133C247.469,465.628,243.647,461.805,238.936,461.805z"/>
			<path d="M273.069,461.805c-4.71,0-8.533,3.823-8.533,8.533v34.133c0,4.71,3.823,8.533,8.533,8.533
				c4.71,0,8.533-3.823,8.533-8.533v-34.133C281.603,465.628,277.78,461.805,273.069,461.805z"/>
			<path d="M307.203,461.805c-4.71,0-8.533,3.823-8.533,8.533v34.133c0,4.71,3.823,8.533,8.533,8.533s8.533-3.823,8.533-8.533
				v-34.133C315.736,465.628,311.913,461.805,307.203,461.805z"/>
			<path d="M204.803,52.205c4.71,0,8.533-3.823,8.533-8.533V9.538c0-4.71-3.823-8.533-8.533-8.533s-8.533,3.823-8.533,8.533v34.133
				C196.269,48.382,200.092,52.205,204.803,52.205z"/>
			<path d="M238.936,52.205c4.71,0,8.533-3.823,8.533-8.533V9.538c0-4.71-3.823-8.533-8.533-8.533s-8.533,3.823-8.533,8.533v34.133
				C230.403,48.382,234.226,52.205,238.936,52.205z"/>
			<path d="M273.069,52.205c4.71,0,8.533-3.823,8.533-8.533V9.538c0-4.71-3.823-8.533-8.533-8.533c-4.71,0-8.533,3.823-8.533,8.533
				v34.133C264.536,48.382,268.359,52.205,273.069,52.205z"/>
			<path d="M307.203,52.205c4.71,0,8.533-3.823,8.533-8.533V9.538c0-4.71-3.823-8.533-8.533-8.533s-8.533,3.823-8.533,8.533v34.133
				C298.669,48.382,302.492,52.205,307.203,52.205z"/>
			<path d="M122.194,126.725c1.647,1.527,3.729,2.278,5.811,2.278c2.287,0,4.565-0.913,6.255-2.722
				c3.2-3.456,3.004-8.858-0.452-12.066L14.341,3.282c-3.447-3.2-8.849-3.004-12.058,0.444c-3.208,3.456-3.004,8.858,0.444,12.066
				L122.194,126.725z"/>
			<path d="M384.003,129.005c2.082,0,4.164-0.751,5.811-2.278L509.281,15.793c3.447-3.209,3.644-8.61,0.444-12.066
				c-3.226-3.456-8.61-3.652-12.066-0.444L378.192,114.216c-3.448,3.209-3.644,8.61-0.444,12.066
				C379.429,128.092,381.716,129.005,384.003,129.005z"/>
			<path d="M389.811,387.284c-3.456-3.2-8.849-3.004-12.066,0.444c-3.2,3.456-3.004,8.858,0.452,12.066l119.467,110.933
				c1.647,1.527,3.729,2.278,5.803,2.278c2.287,0,4.574-0.922,6.255-2.722c3.209-3.456,3.004-8.858-0.444-12.066L389.811,387.284z"
				/>
			<path d="M122.194,387.284L2.727,498.217c-3.447,3.208-3.652,8.61-0.444,12.066c1.681,1.801,3.968,2.722,6.255,2.722
				c2.074,0,4.156-0.751,5.803-2.278l119.467-110.933c3.456-3.208,3.652-8.61,0.452-12.066
				C131.043,384.272,125.65,384.084,122.194,387.284z"/>
			<path d="M307.45,236.917c-3.746-9.523-2.364-20.13,3.686-28.382l2.116-2.893l-3.763-3.763l-2.816,1.911
				c-8.474,5.734-19.132,6.716-28.501,2.628c-9.378-4.087-15.906-12.561-17.459-22.673l-0.546-3.541h-5.316l-1.22,6.34
				c-1.894,9.822-8.533,17.971-17.775,21.803c-9.259,3.831-19.712,2.765-27.998-2.842l-5.342-3.618l-3.763,3.755l2.116,2.893
				c6.05,8.252,7.433,18.859,3.686,28.382c-3.738,9.523-11.964,16.358-22.008,18.287l-3.345,0.649v5.316l3.541,0.546
				c10.112,1.553,18.586,8.081,22.673,17.459c4.096,9.37,3.115,20.028-2.628,28.501l-1.911,2.816l3.763,3.763l2.893-2.116
				c8.252-6.05,18.859-7.424,28.382-3.686c9.523,3.738,16.358,11.964,18.287,22.008l0.649,3.345l5.376-0.35
				c1.587-10.325,8.303-18.884,17.963-22.886c9.651-4.011,20.454-2.697,28.894,3.49l0.282,0.196l3.763-3.763l-1.911-2.816
				c-5.743-8.474-6.724-19.132-2.628-28.501c4.087-9.378,12.561-15.906,22.673-17.459l3.541-0.546v-5.316l-3.345-0.649
				C319.414,253.276,311.188,246.44,307.45,236.917z M256.003,291.138c-18.825,0-34.133-15.309-34.133-34.133
				c0-18.825,15.309-34.133,34.133-34.133s34.133,15.309,34.133,34.133C290.136,275.829,274.827,291.138,256.003,291.138z"/>
			<path d="M256.003,239.938c-9.412,0-17.067,7.654-17.067,17.067c0,9.412,7.654,17.067,17.067,17.067
				c9.412,0,17.067-7.654,17.067-17.067C273.069,247.592,265.415,239.938,256.003,239.938z"/>
			<path d="M384.003,333.806h34.133V316.74h17.067c4.71,0,8.533-3.823,8.533-8.533s-3.823-8.533-8.533-8.533h-17.067v-17.067h17.067
				c4.71,0,8.533-3.823,8.533-8.533c0-4.71-3.823-8.533-8.533-8.533h-17.067v-17.067h17.067c4.71,0,8.533-3.823,8.533-8.533
				s-3.823-8.533-8.533-8.533h-17.067V214.34h17.067c4.71,0,8.533-3.823,8.533-8.533c0-4.71-3.823-8.533-8.533-8.533h-17.067
				v-17.067h-34.133v-14.02c0-20.506-16.683-37.18-37.18-37.18h-14.02V94.873h-17.067V77.806c0-4.71-3.823-8.533-8.533-8.533
				s-8.533,3.823-8.533,8.533v17.067h-17.067V77.806c0-4.71-3.823-8.533-8.533-8.533c-4.71,0-8.533,3.823-8.533,8.533v17.067
				h-17.067V77.806c0-4.71-3.823-8.533-8.533-8.533s-8.533,3.823-8.533,8.533v17.067h-17.067V77.806c0-4.71-3.823-8.533-8.533-8.533
				s-8.533,3.823-8.533,8.533v17.067h-17.067v34.133h-14.02c-20.497,0-37.18,16.674-37.18,37.18v14.02H93.869v17.067H76.803
				c-4.71,0-8.533,3.823-8.533,8.533c0,4.71,3.823,8.533,8.533,8.533h17.067v17.067H76.803c-4.71,0-8.533,3.823-8.533,8.533
				s3.823,8.533,8.533,8.533h17.067v17.067H76.803c-4.71,0-8.533,3.823-8.533,8.533c0,4.71,3.823,8.533,8.533,8.533h17.067v17.067
				H76.803c-4.71,0-8.533,3.823-8.533,8.533s3.823,8.533,8.533,8.533h17.067v17.067h34.133v14.012
				c0,20.506,16.683,37.188,37.18,37.188h14.02v34.133h17.067v17.067c0,4.71,3.823,8.533,8.533,8.533s8.533-3.823,8.533-8.533
				V419.14h17.067v17.067c0,4.71,3.823,8.533,8.533,8.533s8.533-3.823,8.533-8.533V419.14h17.067v17.067
				c0,4.71,3.823,8.533,8.533,8.533c4.71,0,8.533-3.823,8.533-8.533V419.14h17.067v17.067c0,4.71,3.823,8.533,8.533,8.533
				s8.533-3.823,8.533-8.533V419.14h17.067v-34.133h14.02c20.497,0,37.18-16.683,37.18-37.188V333.806z M349.869,268.492
				c0,4.216-3.072,7.791-7.236,8.431l-10.769,1.664c-4.361,0.666-7.876,3.371-9.634,7.407c-1.766,4.045-1.357,8.457,1.118,12.109
				l5.862,8.653c2.295,3.388,1.86,7.927-1.033,10.82l-13.926,13.926c-2.97,2.97-7.671,3.337-11.076,0.845l-6.187-4.531
				c-3.635-2.662-8.098-3.209-12.262-1.485c-4.173,1.724-6.946,5.274-7.637,9.728l-1.169,7.578c-0.64,4.164-4.215,7.236-8.431,7.236
				h-19.686c-4.096,0-7.612-2.91-8.38-6.92l-1.98-10.266c-0.828-4.335-3.661-7.74-7.765-9.353c-4.087-1.604-8.491-1.041-12.058,1.57
				l-8.789,6.443c-3.405,2.492-8.107,2.125-11.076-0.845l-13.926-13.926c-2.893-2.893-3.328-7.433-1.033-10.82l5.862-8.653
				c2.475-3.652,2.884-8.064,1.118-12.109c-1.758-4.036-5.274-6.741-9.626-7.407l-10.778-1.664c-4.164-0.64-7.236-4.215-7.236-8.431
				v-19.695c0-4.087,2.901-7.603,6.921-8.38l10.266-1.971c4.326-0.836,7.74-3.661,9.353-7.765c1.604-4.105,1.033-8.499-1.57-12.058
				l-6.451-8.789c-2.483-3.396-2.125-8.098,0.853-11.076l13.926-13.926c2.893-2.893,7.424-3.328,10.82-1.033l11.179,7.578
				c3.576,2.415,7.902,2.859,11.887,1.203c3.985-1.647,6.733-5.026,7.552-9.259l2.551-13.261c0.768-4.019,4.284-6.921,8.38-6.921
				h19.686c4.215,0,7.791,3.072,8.431,7.228l1.664,10.778c0.666,4.361,3.371,7.876,7.407,9.634
				c4.045,1.758,8.457,1.357,12.109-1.118l8.653-5.862c3.396-2.295,7.927-1.869,10.82,1.033l13.926,13.926
				c2.978,2.978,3.337,7.68,0.853,11.076l-6.451,8.789c-2.603,3.558-3.174,7.953-1.57,12.058c1.613,4.105,5.026,6.929,9.353,7.765
				l10.266,1.971c4.019,0.777,6.921,4.292,6.921,8.38V268.492z"/>
		</g>
	</g>
</g>
</svg>